<?xml version="1.0" encoding="UTF-8" standalone="no"?>
<!-- Created with Inkscape (http://www.inkscape.org/) -->

<svg
   width="39.158283mm"
   height="39.158283mm"
   viewBox="0 0 39.158283 39.158283"
   version="1.1"
   id="svg1"
   inkscape:version="1.4 (e7c3feb100, 2024-10-09)"
   sodipodi:docname="qr.svg"
   xmlns:inkscape="http://www.inkscape.org/namespaces/inkscape"
   xmlns:sodipodi="http://sodipodi.sourceforge.net/DTD/sodipodi-0.dtd"
   xmlns="http://www.w3.org/2000/svg"
   xmlns:svg="http://www.w3.org/2000/svg">
  <sodipodi:namedview
     id="namedview1"
     pagecolor="#ffffff"
     bordercolor="#000000"
     borderopacity="0.25"
     inkscape:showpageshadow="2"
     inkscape:pageopacity="0.0"
     inkscape:pagecheckerboard="0"
     inkscape:deskcolor="#d1d1d1"
     inkscape:document-units="mm"
     inkscape:zoom="0.75455247"
     inkscape:cx="0"
     inkscape:cy="-0.66264444"
     inkscape:window-width="1920"
     inkscape:window-height="1037"
     inkscape:window-x="0"
     inkscape:window-y="0"
     inkscape:window-maximized="1"
     inkscape:current-layer="layer1" />
  <defs
     id="defs1" />
  <g
     inkscape:label="Capa 1"
     inkscape:groupmode="layer"
     id="layer1"
     transform="translate(-104.844,-148.5)">
    <g
       inkscape:label="QR Code: https://recursos-tic.up.railway.app/"
       transform="matrix(0.264583,0,0,0.264583,104.844,148.5)"
       id="g2">
      <rect
         x="0"
         y="0"
         width="148"
         height="148"
         style="fill:#ffffff;stroke:none"
         id="rect1" />
      <g
         style="fill:#000000;stroke:none"
         id="g1">
        <path
           d="m 131.6,132 h -7.2 c -0.221,0 -0.4,-0.179 -0.4,-0.4 v -7.2 c 0,-0.221 0.179,-0.4 0.4,-0.4 h 3.6 v 3.6 c 0,0.221 0.179,0.4 0.4,0.4 h 3.2 c 0.221,0 0.4,0.179 0.4,0.4 v 3.2 c 0,0.221 -0.179,0.4 -0.4,0.4 z m -12,0 h -7.2 c -0.221,0 -0.4,-0.179 -0.4,-0.4 v -3.2 c 0,-0.221 -0.179,-0.4 -0.4,-0.4 h -3.2 c -0.221,0 -0.4,-0.179 -0.4,-0.4 v -11.2 c 0,-0.221 -0.179,-0.4 -0.4,-0.4 H 96.4 c -0.2209,0 -0.4,-0.179 -0.4,-0.4 v -7.2 c 0,-0.221 -0.1791,-0.4 -0.4,-0.4 h -3.2 c -0.2209,0 -0.4,-0.179 -0.4,-0.4 v -3.2 c 0,-0.221 0.1791,-0.4 0.4,-0.4 h 3.2 c 0.2209,0 0.4,-0.179 0.4,-0.4 V 96.4 C 96,96.1791 95.8209,96 95.6,96 H 88.4 C 88.1791,96 88,96.1791 88,96.4 v 3.2 c 0,0.2209 -0.1791,0.4 -0.4,0.4 H 76.4 C 76.1791,100 76,99.8209 76,99.6 V 96.4 C 76,96.1791 76.1791,96 76.4,96 h 3.2 C 79.8209,96 80,95.8209 80,95.6 V 80 h 3.6 C 83.8209,80 84,79.8209 84,79.6 V 76.4 C 84,76.1791 84.1791,76 84.4,76 h 3.2 C 87.8209,76 88,75.8209 88,75.6 V 72 h 3.6 c 0.2209,0 0.4,0.1791 0.4,0.4 v 3.2 c 0,0.2209 0.1791,0.4 0.4,0.4 h 3.2 c 0.2209,0 0.4,0.1791 0.4,0.4 v 3.2 c 0,0.2209 0.1791,0.4 0.4,0.4 h 7.2 c 0.221,0 0.4,-0.1791 0.4,-0.4 V 68.4 c 0,-0.2209 -0.179,-0.4 -0.4,-0.4 h -3.2 c -0.221,0 -0.4,0.1791 -0.4,0.4 v 3.2 c 0,0.2209 -0.1791,0.4 -0.4,0.4 H 96.4 C 96.1791,72 96,71.8209 96,71.6 V 64.4 C 96,64.1791 96.1791,64 96.4,64 h 3.2 c 0.2209,0 0.4,-0.1791 0.4,-0.4 v -3.2 c 0,-0.2209 0.179,-0.4 0.4,-0.4 h 3.2 c 0.221,0 0.4,-0.1791 0.4,-0.4 V 52.4 C 104,52.1791 103.821,52 103.6,52 H 92 V 48.4 C 92,48.1791 92.1791,48 92.4,48 h 3.2 C 95.8209,48 96,47.8209 96,47.6 V 40 h 3.6 c 0.2209,0 0.4,0.1791 0.4,0.4 v 7.2 c 0,0.2209 0.179,0.4 0.4,0.4 h 7.2 c 0.221,0 0.4,0.1791 0.4,0.4 v 7.2 c 0,0.2209 0.179,0.4 0.4,0.4 h 7.6 v 3.6 c 0,0.2209 -0.179,0.4 -0.4,0.4 h -7.2 c -0.221,0 -0.4,0.1791 -0.4,0.4 v 3.2 c 0,0.2209 0.179,0.4 0.4,0.4 h 3.2 c 0.221,0 0.4,0.1791 0.4,0.4 v 3.2 c 0,0.2209 -0.179,0.4 -0.4,0.4 h -3.2 c -0.221,0 -0.4,0.1791 -0.4,0.4 v 3.2 c 0,0.2209 0.179,0.4 0.4,0.4 h 3.2 c 0.221,0 0.4,0.1791 0.4,0.4 v 7.2 c 0,0.2209 -0.179,0.4 -0.4,0.4 h -3.2 c -0.221,0 -0.4,0.1791 -0.4,0.4 V 88 h -3.6 c -0.221,0 -0.4,0.1791 -0.4,0.4 V 92 h -3.6 c -0.221,0 -0.4,0.1791 -0.4,0.4 v 3.2 c 0,0.2209 0.179,0.4 0.4,0.4 h 3.2 c 0.221,0 0.4,-0.1791 0.4,-0.4 V 92 h 4 v 3.6 c 0,0.2209 0.179,0.4 0.4,0.4 h 7.6 v 7.6 c 0,0.221 0.179,0.4 0.4,0.4 h 3.6 v 7.6 c 0,0.221 -0.179,0.4 -0.4,0.4 h -3.2 c -0.221,0 -0.4,0.179 -0.4,0.4 v 7.2 c 0,0.221 0.179,0.4 0.4,0.4 h 3.6 v 3.6 c 0,0.221 -0.179,0.4 -0.4,0.4 h -3.2 c -0.221,0 -0.4,0.179 -0.4,0.4 v 3.2 c 0,0.221 0.179,0.4 0.4,0.4 h 3.2 c 0.221,0 0.4,0.179 0.4,0.4 v 3.2 c 0,0.221 -0.179,0.4 -0.4,0.4 z m -16,0 h -7.2 c -0.2209,0 -0.4,-0.179 -0.4,-0.4 v -3.2 c 0,-0.221 -0.1791,-0.4 -0.4,-0.4 h -7.2 c -0.2209,0 -0.4,0.179 -0.4,0.4 v 3.2 c 0,0.221 -0.1791,0.4 -0.4,0.4 H 80.4 C 80.1791,132 80,131.821 80,131.6 V 128 h 3.6 c 0.2209,0 0.4,-0.179 0.4,-0.4 v -7.2 C 84,120.179 83.8209,120 83.6,120 H 80.4 C 80.1791,120 80,119.821 80,119.6 V 116 h 3.6 c 0.2209,0 0.4,-0.179 0.4,-0.4 v -7.2 c 0,-0.221 0.1791,-0.4 0.4,-0.4 h 3.2 c 0.2209,0 0.4,0.179 0.4,0.4 v 7.2 c 0,0.221 0.1791,0.4 0.4,0.4 h 3.2 c 0.2209,0 0.4,0.179 0.4,0.4 v 3.6 h -3.6 c -0.2209,0 -0.4,0.179 -0.4,0.4 v 3.2 c 0,0.221 0.1791,0.4 0.4,0.4 h 3.2 c 0.2209,0 0.4,-0.179 0.4,-0.4 V 120 h 3.6 c 0.2209,0 0.4,0.179 0.4,0.4 v 3.2 c 0,0.221 0.1791,0.4 0.4,0.4 h 3.2 c 0.2209,0 0.4,-0.179 0.4,-0.4 v -3.2 c 0,-0.221 0.179,-0.4 0.4,-0.4 h 3.2 c 0.221,0 0.4,0.179 0.4,0.4 v 11.2 c 0,0.221 -0.179,0.4 -0.4,0.4 z m -36,0 H 64.4 C 64.1791,132 64,131.821 64,131.6 V 128 h 3.6 c 0.2209,0 0.4,0.179 0.4,0.4 v 3.2 c 0,0.221 -0.1791,0.4 -0.4,0.4 z m -8,0 H 48.4 c -0.2209,0 -0.4,-0.179 -0.4,-0.4 v -11.2 c 0,-0.221 0.1791,-0.4 0.4,-0.4 h 3.2 c 0.2209,0 0.4,-0.179 0.4,-0.4 v -3.2 C 52,116.179 51.8209,116 51.6,116 H 48.4 C 48.1791,116 48,115.821 48,115.6 V 100 h 4 v 11.6 c 0,0.221 0.1791,0.4 0.4,0.4 H 64 v 7.6 c 0,0.221 -0.1791,0.4 -0.4,0.4 H 60 v -3.6 c 0,-0.221 -0.1791,-0.4 -0.4,-0.4 h -3.2 c -0.2209,0 -0.4,0.179 -0.4,0.4 v 3.2 c 0,0.221 0.1791,0.4 0.4,0.4 H 60 v 4 h -3.6 c -0.2209,0 -0.4,0.179 -0.4,0.4 v 3.2 c 0,0.221 0.1791,0.4 0.4,0.4 H 60 v 3.6 c 0,0.221 -0.1791,0.4 -0.4,0.4 z m -16,0 H 16.4 c -0.2209,0 -0.4,-0.179 -0.4,-0.4 v -27.2 c 0,-0.221 0.1791,-0.4 0.4,-0.4 h 27.2 c 0.2209,0 0.4,0.179 0.4,0.4 v 27.2 c 0,0.221 -0.1791,0.4 -0.4,0.4 z m 36,-4 h -3.2 c -0.2209,0 -0.4,-0.179 -0.4,-0.4 v -3.2 c 0,-0.221 0.1791,-0.4 0.4,-0.4 h 3.2 c 0.2209,0 0.4,0.179 0.4,0.4 v 3.6 z m -16,0 H 60 v -4 h 3.6 c 0.2209,0 0.4,0.179 0.4,0.4 V 128 Z M 40,127.6 V 108.4 C 40,108.179 39.8209,108 39.6,108 H 20.4 c -0.2209,0 -0.4,0.179 -0.4,0.4 v 19.2 c 0,0.221 0.1791,0.4 0.4,0.4 h 19.2 c 0.2209,0 0.4,-0.179 0.4,-0.4 z M 131.6,124 H 128 v -3.6 c 0,-0.221 -0.179,-0.4 -0.4,-0.4 H 120 v -3.6 c 0,-0.221 0.179,-0.4 0.4,-0.4 h 3.2 c 0.221,0 0.4,-0.179 0.4,-0.4 v -11.2 c 0,-0.221 -0.179,-0.4 -0.4,-0.4 H 120 v -3.6 c 0,-0.221 0.179,-0.4 0.4,-0.4 h 11.2 c 0.221,0 0.4,0.179 0.4,0.4 v 7.2 c 0,0.221 -0.179,0.4 -0.4,0.4 h -3.2 c -0.221,0 -0.4,0.179 -0.4,0.4 v 3.2 c 0,0.221 0.179,0.4 0.4,0.4 h 3.2 c 0.221,0 0.4,0.179 0.4,0.4 v 11.2 c 0,0.221 -0.179,0.4 -0.4,0.4 z m -60,0 h -3.2 c -0.2209,0 -0.4,-0.179 -0.4,-0.4 v -3.2 c 0,-0.221 0.1791,-0.4 0.4,-0.4 H 72 v 3.6 c 0,0.221 -0.1791,0.4 -0.4,0.4 z m -36,0 H 24.4 c -0.2209,0 -0.4,-0.179 -0.4,-0.4 v -11.2 c 0,-0.221 0.1791,-0.4 0.4,-0.4 h 11.2 c 0.2209,0 0.4,0.179 0.4,0.4 v 11.2 c 0,0.221 -0.1791,0.4 -0.4,0.4 z m 40,-4 H 72 v -7.6 C 72,112.179 71.8209,112 71.6,112 H 64 v -3.6 c 0,-0.221 -0.1791,-0.4 -0.4,-0.4 h -3.2 c -0.2209,0 -0.4,-0.179 -0.4,-0.4 v -7.2 c 0,-0.221 0.1791,-0.4 0.4,-0.4 h 3.2 c 0.2209,0 0.4,-0.1791 0.4,-0.4 V 96 h 3.6 c 0.2209,0 0.4,0.1791 0.4,0.4 v 3.2 c 0,0.2209 0.1791,0.4 0.4,0.4 h 3.2 c 0.2209,0 0.4,0.179 0.4,0.4 v 3.6 h -3.6 c -0.2209,0 -0.4,0.179 -0.4,0.4 v 3.2 c 0,0.221 0.1791,0.4 0.4,0.4 h 3.2 c 0.2209,0 0.4,-0.179 0.4,-0.4 V 104 h 3.6 c 0.2209,0 0.4,0.179 0.4,0.4 v 3.2 c 0,0.221 0.1791,0.4 0.4,0.4 h 3.2 c 0.2209,0 0.4,0.179 0.4,0.4 v 7.6 h -3.6 c -0.2209,0 -0.4,0.179 -0.4,0.4 v 3.2 c 0,0.221 -0.1791,0.4 -0.4,0.4 z m 36.4,-8.4 v -11.2 c 0,-0.221 -0.179,-0.4 -0.4,-0.4 h -11.2 c -0.221,0 -0.4,0.179 -0.4,0.4 v 11.2 c 0,0.221 0.179,0.4 0.4,0.4 h 11.2 c 0.221,0 0.4,-0.179 0.4,-0.4 z m -4.4,-3.6 h -3.2 c -0.221,0 -0.4,-0.179 -0.4,-0.4 v -3.2 c 0,-0.221 0.179,-0.4 0.4,-0.4 h 3.2 c 0.221,0 0.4,0.179 0.4,0.4 v 3.2 c 0,0.221 -0.179,0.4 -0.4,0.4 z m -52,-8 H 52 V 96.4 C 52,96.1791 52.1791,96 52.4,96 H 56 v 3.6 c 0,0.2209 -0.1791,0.4 -0.4,0.4 z m -8,0 H 40.4 C 40.1791,100 40,99.8209 40,99.6 V 96.4 C 40,96.1791 40.1791,96 40.4,96 h 7.2 c 0.2209,0 0.4,0.1791 0.4,0.4 v 3.6 z m -12,0 H 32.4 C 32.1791,100 32,99.8209 32,99.6 V 96.4 C 32,96.1791 31.8209,96 31.6,96 H 28.4 C 28.1791,96 28,95.8209 28,95.6 V 92.4 C 28,92.1791 27.8209,92 27.6,92 H 24 V 88.4 C 24,88.1791 24.1791,88 24.4,88 h 3.2 C 27.8209,88 28,87.8209 28,87.6 V 84.4 C 28,84.1791 27.8209,84 27.6,84 H 24.4 C 24.1791,84 24,83.8209 24,83.6 V 80 h 3.6 C 27.8209,80 28,79.8209 28,79.6 V 72.4 C 28,72.1791 28.1791,72 28.4,72 H 47.6 C 47.8209,72 48,71.8209 48,71.6 V 68.4 C 48,68.1791 47.8209,68 47.6,68 H 40.4 C 40.1791,68 40,67.8209 40,67.6 V 64.4 C 40,64.1791 40.1791,64 40.4,64 h 7.2 C 47.8209,64 48,63.8209 48,63.6 V 60.4 C 48,60.1791 47.8209,60 47.6,60 H 32.4 C 32.1791,60 32,60.1791 32,60.4 v 7.2 C 32,67.8209 31.8209,68 31.6,68 H 28.4 C 28.1791,68 28,67.8209 28,67.6 V 64.4 C 28,64.1791 27.8209,64 27.6,64 H 24.4 C 24.1791,64 24,64.1791 24,64.4 v 7.2 C 24,71.8209 23.8209,72 23.6,72 H 20.4 C 20.1791,72 20,72.1791 20,72.4 V 76 H 16.4 C 16.1791,76 16,75.8209 16,75.6 V 48.4 C 16,48.1791 16.1791,48 16.4,48 h 11.2 c 0.2209,0 0.4,0.1791 0.4,0.4 v 3.2 c 0,0.2209 0.1791,0.4 0.4,0.4 h 3.2 C 31.8209,52 32,51.8209 32,51.6 V 48.4 C 32,48.1791 32.1791,48 32.4,48 H 47.6 C 47.8209,48 48,47.8209 48,47.6 V 40.4 C 48,40.1791 48.1791,40 48.4,40 H 52 v 3.6 c 0,0.2209 0.1791,0.4 0.4,0.4 h 3.2 C 55.8209,44 56,43.8209 56,43.6 V 40 h 3.6 c 0.2209,0 0.4,0.1791 0.4,0.4 v 7.2 c 0,0.2209 0.1791,0.4 0.4,0.4 H 64 v 7.6 C 64,55.8209 63.8209,56 63.6,56 H 56 V 48.4 C 56,48.1791 55.8209,48 55.6,48 H 52.4 C 52.1791,48 52,48.1791 52,48.4 v 7.2 c 0,0.2209 0.1791,0.4 0.4,0.4 H 56 v 3.6 C 56,59.8209 55.8209,60 55.6,60 H 52.4 C 52.1791,60 52,60.1791 52,60.4 v 7.2 c 0,0.2209 0.1791,0.4 0.4,0.4 h 3.2 c 0.2209,0 0.4,0.1791 0.4,0.4 v 3.2 C 56,71.8209 55.8209,72 55.6,72 H 52.4 C 52.1791,72 52,72.1791 52,72.4 v 7.2 C 52,79.8209 51.8209,80 51.6,80 H 44 V 76.4 C 44,76.1791 43.8209,76 43.6,76 H 40.4 C 40.1791,76 40,76.1791 40,76.4 V 80 H 32.4 C 32.1791,80 32,80.1791 32,80.4 v 11.2 c 0,0.2209 0.1791,0.4 0.4,0.4 H 36 v 7.6 c 0,0.2209 -0.1791,0.4 -0.4,0.4 z m -16,0 H 16.4 C 16.1791,100 16,99.8209 16,99.6 V 96.4 C 16,96.1791 16.1791,96 16.4,96 H 20 v 3.6 c 0,0.2209 -0.1791,0.4 -0.4,0.4 z m 108,-4 h -3.2 C 124.179,96 124,95.8209 124,95.6 V 88 h 3.6 c 0.221,0 0.4,-0.1791 0.4,-0.4 V 84.4 C 128,84.1791 127.821,84 127.6,84 H 124 V 72.4 c 0,-0.2209 0.179,-0.4 0.4,-0.4 h 3.2 c 0.221,0 0.4,-0.1791 0.4,-0.4 v -3.2 c 0,-0.2209 -0.179,-0.4 -0.4,-0.4 h -3.2 c -0.221,0 -0.4,-0.1791 -0.4,-0.4 v -7.2 c 0,-0.2209 -0.179,-0.4 -0.4,-0.4 h -3.2 C 120.179,60 120,59.8209 120,59.6 V 56 h 7.6 c 0.221,0 0.4,-0.1791 0.4,-0.4 v -3.2 c 0,-0.2209 0.179,-0.4 0.4,-0.4 h 3.2 c 0.221,0 0.4,0.1791 0.4,0.4 v 7.2 c 0,0.2209 -0.179,0.4 -0.4,0.4 h -3.2 c -0.221,0 -0.4,0.1791 -0.4,0.4 v 3.2 c 0,0.2209 0.179,0.4 0.4,0.4 h 3.2 c 0.221,0 0.4,0.1791 0.4,0.4 v 11.2 c 0,0.2209 -0.179,0.4 -0.4,0.4 h -3.2 c -0.221,0 -0.4,0.1791 -0.4,0.4 v 3.2 c 0,0.2209 0.179,0.4 0.4,0.4 h 3.2 c 0.221,0 0.4,0.1791 0.4,0.4 v 11.2 c 0,0.2209 -0.179,0.4 -0.4,0.4 h -3.2 c -0.221,0 -0.4,0.1791 -0.4,0.4 v 3.2 c 0,0.2209 -0.179,0.4 -0.4,0.4 z m -8,0 H 116 v -4 h 3.6 c 0.221,0 0.4,0.1791 0.4,0.4 v 3.2 c 0,0.2209 -0.179,0.4 -0.4,0.4 z m -56,0 H 56 v -4 h 7.6 c 0.2209,0 0.4,0.1791 0.4,0.4 V 96 Z m -40,0 H 20 v -4 h 4 v 3.6 c 0,0.2209 -0.1791,0.4 -0.4,0.4 z m 92,-4 H 108 v -4 h 8 v 4 z M 96,91.6 V 84.4 C 96,84.1791 95.8209,84 95.6,84 H 92.4 C 92.1791,84 92,83.8209 92,83.6 V 80.4 C 92,80.1791 91.8209,80 91.6,80 H 88.4 C 88.1791,80 88,80.1791 88,80.4 v 3.2 C 88,83.8209 87.8209,84 87.6,84 H 84.4 C 84.1791,84 84,84.1791 84,84.4 v 7.2 c 0,0.2209 0.1791,0.4 0.4,0.4 h 3.2 C 87.8209,92 88,91.8209 88,91.6 V 88.4 C 88,88.1791 88.1791,88 88.4,88 h 3.2 c 0.2209,0 0.4,0.1791 0.4,0.4 v 3.2 c 0,0.2209 0.1791,0.4 0.4,0.4 h 3.2 C 95.8209,92 96,91.8209 96,91.6 Z M 71.6,92 H 68.4 C 68.1791,92 68,91.8209 68,91.6 V 88.4 C 68,88.1791 68.1791,88 68.4,88 H 72 v 3.6 c 0,0.2209 -0.1791,0.4 -0.4,0.4 z m -16,0 H 52.4 C 52.1791,92 52,91.8209 52,91.6 V 88 h 3.6 c 0.2209,0 0.4,0.1791 0.4,0.4 V 92 Z m -8,0 H 36 V 84.4 C 36,84.1791 36.1791,84 36.4,84 H 40 v 3.6 c 0,0.2209 0.1791,0.4 0.4,0.4 h 3.2 C 43.8209,88 44,87.8209 44,87.6 V 84 h 7.6 c 0.2209,0 0.4,0.1791 0.4,0.4 V 88 H 48.4 C 48.1791,88 48,88.1791 48,88.4 v 3.2 c 0,0.2209 -0.1791,0.4 -0.4,0.4 z m -28,0 H 16.4 C 16.1791,92 16,91.8209 16,91.6 V 88.4 C 16,88.1791 16.1791,88 16.4,88 h 3.2 c 0.2209,0 0.4,0.1791 0.4,0.4 V 92 Z m 104,-4 H 116 V 64.4 c 0,-0.2209 0.179,-0.4 0.4,-0.4 h 3.2 c 0.221,0 0.4,0.1791 0.4,0.4 v 19.2 c 0,0.2209 0.179,0.4 0.4,0.4 h 3.6 v 4 z m -48,0 H 72 V 80.4 C 72,80.1791 71.8209,80 71.6,80 H 64 V 76.4 C 64,76.1791 63.8209,76 63.6,76 H 60 V 68.4 C 60,68.1791 60.1791,68 60.4,68 h 3.2 C 63.8209,68 64,67.8209 64,67.6 V 64 h 3.6 c 0.2209,0 0.4,0.1791 0.4,0.4 v 3.2 c 0,0.2209 0.1791,0.4 0.4,0.4 h 3.2 c 0.2209,0 0.4,0.1791 0.4,0.4 V 72 H 68.4 C 68.1791,72 68,72.1791 68,72.4 v 3.2 c 0,0.2209 0.1791,0.4 0.4,0.4 h 3.2 C 71.8209,76 72,75.8209 72,75.6 V 72 h 3.6 c 0.2209,0 0.4,0.1791 0.4,0.4 v 3.2 c 0,0.2209 0.1791,0.4 0.4,0.4 h 3.2 c 0.2209,0 0.4,0.1791 0.4,0.4 V 80 H 76.4 C 76.1791,80 76,80.1791 76,80.4 v 7.2 c 0,0.2209 -0.1791,0.4 -0.4,0.4 z m -12,0 H 60.4 C 60.1791,88 60,87.8209 60,87.6 V 80 h 4 v 7.6 c 0,0.2209 -0.1791,0.4 -0.4,0.4 z m -20,-4 H 40 v -4 h 4 v 4 z m -24,0 H 16.4 C 16.1791,84 16,83.8209 16,83.6 V 80.4 C 16,80.1791 16.1791,80 16.4,80 H 20 v 3.6 c 0,0.2209 -0.1791,0.4 -0.4,0.4 z m 40,-4 H 56.4 C 56.1791,80 56,79.8209 56,79.6 V 76.4 C 56,76.1791 56.1791,76 56.4,76 H 60 v 4 z m -36,0 H 20 v -4 h 3.6 c 0.2209,0 0.4,0.1791 0.4,0.4 V 80 Z m 64,-8 H 80.4 C 80.1791,72 80,71.8209 80,71.6 V 68.4 C 80,68.1791 80.1791,68 80.4,68 h 3.2 C 83.8209,68 84,67.8209 84,67.6 V 60.4 C 84,60.1791 83.8209,60 83.6,60 H 80 V 52.4 C 80,52.1791 80.1791,52 80.4,52 h 3.2 C 83.8209,52 84,51.8209 84,51.6 V 44 h 4 v 7.6 c 0,0.2209 0.1791,0.4 0.4,0.4 H 92 v 7.6 C 92,59.8209 91.8209,60 91.6,60 H 88.4 C 88.1791,60 88,60.1791 88,60.4 V 72 Z m -8,-8 H 76.4 C 76.1791,64 76,63.8209 76,63.6 V 60.4 C 76,60.1791 76.1791,60 76.4,60 H 80 v 3.6 c 0,0.2209 -0.1791,0.4 -0.4,0.4 z m -16,0 H 60.4 C 60.1791,64 60,63.8209 60,63.6 V 60.4 C 60,60.1791 60.1791,60 60.4,60 h 3.2 c 0.2209,0 0.4,0.1791 0.4,0.4 V 64 Z m 8,-4 H 68.4 C 68.1791,60 68,59.8209 68,59.6 V 56.4 C 68,56.1791 68.1791,56 68.4,56 H 72 v 3.6 C 72,59.8209 71.8209,60 71.6,60 Z M 28,59.6 V 56.4 C 28,56.1791 27.8209,56 27.6,56 H 24 V 52.4 C 24,52.1791 23.8209,52 23.6,52 H 20.4 C 20.1791,52 20,52.1791 20,52.4 v 3.2 c 0,0.2209 0.1791,0.4 0.4,0.4 H 24 v 3.6 c 0,0.2209 0.1791,0.4 0.4,0.4 h 3.2 C 27.8209,60 28,59.8209 28,59.6 Z M 119.6,56 H 116 v -3.6 c 0,-0.2209 0.179,-0.4 0.4,-0.4 h 3.6 v 4 z m -44,0 H 72 V 48.4 C 72,48.1791 71.8209,48 71.6,48 H 64 V 40.4 C 64,40.1791 64.1791,40 64.4,40 H 68 v 3.6 c 0,0.2209 0.1791,0.4 0.4,0.4 h 3.2 C 71.8209,44 72,43.8209 72,43.6 V 40 h 4 v 3.6 c 0,0.2209 0.1791,0.4 0.4,0.4 H 80 v 3.6 C 80,47.8209 79.8209,48 79.6,48 H 76.4 C 76.1791,48 76,48.1791 76,48.4 v 7.2 C 76,55.8209 75.8209,56 75.6,56 Z M 44,55.6 V 52.4 C 44,52.1791 43.8209,52 43.6,52 H 36.4 C 36.1791,52 36,52.1791 36,52.4 v 3.2 c 0,0.2209 0.1791,0.4 0.4,0.4 h 7.2 C 43.8209,56 44,55.8209 44,55.6 Z M 123.6,52 H 120 v -3.6 c 0,-0.2209 0.179,-0.4 0.4,-0.4 h 3.2 c 0.221,0 0.4,0.1791 0.4,0.4 v 3.2 c 0,0.2209 -0.179,0.4 -0.4,0.4 z m 8,-8 H 104.4 C 104.179,44 104,43.8209 104,43.6 V 16.4 c 0,-0.2209 0.179,-0.4 0.4,-0.4 h 27.2 c 0.221,0 0.4,0.1791 0.4,0.4 v 27.2 c 0,0.2209 -0.179,0.4 -0.4,0.4 z m -40,0 H 88 V 36.4 C 88,36.1791 87.8209,36 87.6,36 H 80.4 C 80.1791,36 80,36.1791 80,36.4 V 40 H 76 V 36.4 C 76,36.1791 75.8209,36 75.6,36 H 72 V 32.4 C 72,32.1791 71.8209,32 71.6,32 H 68.4 C 68.1791,32 68,31.8209 68,31.6 V 28.4 C 68,28.1791 67.8209,28 67.6,28 H 64 V 24.4 C 64,24.1791 63.8209,24 63.6,24 H 60.4 C 60.1791,24 60,24.1791 60,24.4 v 3.2 c 0,0.2209 0.1791,0.4 0.4,0.4 H 64 v 3.6 C 64,31.8209 63.8209,32 63.6,32 H 60.4 C 60.1791,32 60,32.1791 60,32.4 v 3.2 C 60,35.8209 59.8209,36 59.6,36 H 56 V 32.4 C 56,32.1791 55.8209,32 55.6,32 H 52.4 C 52.1791,32 52,31.8209 52,31.6 V 28.4 C 52,28.1791 51.8209,28 51.6,28 H 48.4 C 48.1791,28 48,27.8209 48,27.6 V 24.4 C 48,24.1791 48.1791,24 48.4,24 h 7.2 C 55.8209,24 56,23.8209 56,23.6 V 20 h 7.6 C 63.8209,20 64,19.8209 64,19.6 V 16.4 C 64,16.1791 64.1791,16 64.4,16 h 11.2 c 0.2209,0 0.4,0.1791 0.4,0.4 v 3.2 c 0,0.2209 0.1791,0.4 0.4,0.4 h 3.2 C 79.8209,20 80,19.8209 80,19.6 V 16.4 C 80,16.1791 80.1791,16 80.4,16 h 3.2 c 0.2209,0 0.4,0.1791 0.4,0.4 v 3.2 c 0,0.2209 0.1791,0.4 0.4,0.4 h 3.2 c 0.2209,0 0.4,0.1791 0.4,0.4 V 24 H 80.4 C 80.1791,24 80,24.1791 80,24.4 v 3.2 C 80,27.8209 79.8209,28 79.6,28 H 76.4 C 76.1791,28 76,28.1791 76,28.4 v 3.2 c 0,0.2209 0.1791,0.4 0.4,0.4 H 91.6 C 91.8209,32 92,31.8209 92,31.6 V 28 h 7.6 c 0.2209,0 0.4,0.1791 0.4,0.4 v 3.2 c 0,0.2209 -0.1791,0.4 -0.4,0.4 H 96.4 C 96.1791,32 96,32.1791 96,32.4 V 40 H 92.4 C 92.1791,40 92,40.1791 92,40.4 v 3.2 c 0,0.2209 -0.1791,0.4 -0.4,0.4 z m -8,0 H 80 v -4 h 3.6 c 0.2209,0 0.4,0.1791 0.4,0.4 V 44 Z m -40,0 H 16.4 C 16.1791,44 16,43.8209 16,43.6 V 16.4 C 16,16.1791 16.1791,16 16.4,16 h 27.2 c 0.2209,0 0.4,0.1791 0.4,0.4 V 43.6 C 44,43.8209 43.8209,44 43.6,44 Z M 128,39.6 V 20.4 c 0,-0.2209 -0.179,-0.4 -0.4,-0.4 h -19.2 c -0.221,0 -0.4,0.1791 -0.4,0.4 v 19.2 c 0,0.2209 0.179,0.4 0.4,0.4 h 19.2 c 0.221,0 0.4,-0.1791 0.4,-0.4 z M 71.6,40 H 68 V 36.4 C 68,36.1791 68.1791,36 68.4,36 H 72 v 4 z m -16,0 H 52 V 36.4 C 52,36.1791 52.1791,36 52.4,36 H 56 v 4 z M 40,39.6 V 20.4 C 40,20.1791 39.8209,20 39.6,20 H 20.4 C 20.1791,20 20,20.1791 20,20.4 v 19.2 c 0,0.2209 0.1791,0.4 0.4,0.4 H 39.6 C 39.8209,40 40,39.8209 40,39.6 Z M 123.6,36 H 112.4 C 112.179,36 112,35.8209 112,35.6 V 24.4 c 0,-0.2209 0.179,-0.4 0.4,-0.4 h 11.2 c 0.221,0 0.4,0.1791 0.4,0.4 v 11.2 c 0,0.2209 -0.179,0.4 -0.4,0.4 z m -88,0 H 24.4 C 24.1791,36 24,35.8209 24,35.6 V 24.4 C 24,24.1791 24.1791,24 24.4,24 h 11.2 c 0.2209,0 0.4,0.1791 0.4,0.4 v 11.2 c 0,0.2209 -0.1791,0.4 -0.4,0.4 z m 56,-8 H 88.4 C 88.1791,28 88,27.8209 88,27.6 V 24 h 4 v 4 z m 8,-4 H 92 V 16.4 C 92,16.1791 92.1791,16 92.4,16 h 3.2 c 0.2209,0 0.4,0.1791 0.4,0.4 v 3.2 c 0,0.2209 0.1791,0.4 0.4,0.4 h 3.2 c 0.2209,0 0.4,0.1791 0.4,0.4 v 3.2 c 0,0.2209 -0.1791,0.4 -0.4,0.4 z M 72,23.6 V 20.4 C 72,20.1791 71.8209,20 71.6,20 H 68.4 C 68.1791,20 68,20.1791 68,20.4 v 3.2 c 0,0.2209 0.1791,0.4 0.4,0.4 h 3.2 C 71.8209,24 72,23.8209 72,23.6 Z M 55.6,20 H 52.4 C 52.1791,20 52,19.8209 52,19.6 V 16.4 C 52,16.1791 52.1791,16 52.4,16 h 3.2 c 0.2209,0 0.4,0.1791 0.4,0.4 V 20 Z"
           id="path1" />
      </g>
    </g>
  </g>
</svg>
